<?xml version="1.0" encoding="UTF-8" standalone="no"?><!DOCTYPE svg PUBLIC "-//W3C//DTD SVG 1.1//EN" "http://www.w3.org/Graphics/SVG/1.1/DTD/svg11.dtd"><svg width="100%" height="100%" viewBox="0 0 3508 2481" version="1.1" xmlns="http://www.w3.org/2000/svg" xmlns:xlink="http://www.w3.org/1999/xlink" xml:space="preserve" xmlns:serif="http://www.serif.com/" style="fill-rule:evenodd;clip-rule:evenodd;stroke-linejoin:round;stroke-miterlimit:2;"><rect id="Principal" x="0" y="0" width="3507.874" height="2480.315" style="fill:none;"/><clipPath id="_clip1"><rect id="Principal1" serif:id="Principal" x="0" y="0" width="3507.874" height="2480.315"/></clipPath><g clip-path="url(#_clip1)"><g><g><g><ellipse cx="2936.405" cy="1304.551" rx="296.904" ry="299.723" style="fill:#ec2300;"/><path d="M2960.204,1098.834c123.035,0 194.528,88.119 194.528,192.865c0,108.071 -71.493,191.202 -194.528,191.202c-123.035,0 -194.528,-83.131 -194.528,-191.202c0,-104.746 71.493,-192.865 194.528,-192.865Zm220.812,507.188c59.617,-80.655 122.934,-183.583 122.136,-315.444c-0.728,-120.299 -28.68,-217.028 -112.898,-316.76c-63.18,-74.818 -211.761,-137.68 -309.856,-137.68c-252.72,0 -427.296,209.491 -427.296,453.898c0,244.406 177.901,455.56 430.621,455.56c99.758,0 242.869,-65.945 297.293,-139.574Z" style="fill:#ec2300;fill-rule:nonzero;"/></g><path d="M3210.762,1745.597c-74.009,-269.325 -76.275,-555.878 0,-852.164l297.113,0c-87.857,295.736 -96.493,580.938 -0,852.164l-297.113,0Z"/></g><g><rect x="0" y="337.35" width="302.598" height="1379.982" style="fill-rule:nonzero;"/><path d="M864.567,1098.834c123.035,0 194.528,88.119 194.528,192.865c0,108.071 -71.493,191.202 -194.528,191.202c-123.035,0 -194.528,-83.131 -194.528,-191.202c0,-104.746 71.493,-192.865 194.528,-192.865Zm487.15,-234.431l-302.598,0l0,83.131c-63.18,-74.818 -166.263,-111.396 -264.358,-111.396c-252.72,0 -427.296,209.491 -427.296,453.898c0,244.406 177.901,455.56 430.621,455.56c99.758,0 204.503,-38.24 257.707,-123.035l3.325,0l0,94.77l302.598,0l0,-852.928Z" style="fill-rule:nonzero;"/><path d="M1701.594,864.403l-302.598,0l0,1278.561l302.598,0l0,-507.102c64.843,74.818 166.263,109.733 264.358,109.733c252.72,0 427.296,-206.166 427.296,-452.235c0,-244.406 -176.239,-457.223 -430.621,-457.223c-99.758,0 -202.841,39.903 -257.707,124.697l-3.325,0l0,-96.432Zm184.552,234.431c123.035,0 194.528,88.119 194.528,192.865c0,108.071 -71.493,191.202 -194.528,191.202c-123.035,0 -194.528,-83.131 -194.528,-191.202c0,-104.746 71.493,-192.865 194.528,-192.865Z" style="fill-rule:nonzero;"/></g></g></g></svg>