<?xml version="1.0" encoding="UTF-8" standalone="no"?>
<!DOCTYPE svg PUBLIC "-//W3C//DTD SVG 1.1//EN" "http://www.w3.org/Graphics/SVG/1.1/DTD/svg11.dtd">
<svg width="100%" height="100%" viewBox="0 0 1654 1654" version="1.1" xmlns="http://www.w3.org/2000/svg" xmlns:xlink="http://www.w3.org/1999/xlink" xml:space="preserve" xmlns:serif="http://www.serif.com/" style="fill-rule:evenodd;clip-rule:evenodd;stroke-linejoin:round;stroke-miterlimit:2;">
    <g transform="matrix(1,0,0,1,-27069,-2224)">
        <g id="Prancheta6" transform="matrix(1,0,0,1,-0.76378,-0.314487)">
            <rect x="27069.764" y="2224.314" width="1653.543" height="1653.543" style="fill:none;"/>
            <g transform="matrix(4.987886,0,0,4.987886,-56622.272519,-4236.138296)">
                <g transform="matrix(1,0,0,1,748.173022,361.914865)">
                    <g transform="matrix(0.174079,0,0,0.639006,13401.296492,-281.367677)">
                        <path d="M16034.591,2100.04C16176.289,2100.04 16258.627,2127.687 16258.627,2160.55C16258.627,2194.457 16176.289,2220.539 16034.591,2220.539C15892.892,2220.539 15810.554,2194.457 15810.554,2160.55C15810.554,2127.687 15892.892,2100.04 16034.591,2100.04ZM16288.899,2259.168C16357.56,2233.863 16430.482,2201.57 16429.562,2160.199C16428.724,2122.456 16396.532,2092.107 16299.538,2060.817C16226.774,2037.343 16055.654,2017.62 15942.678,2017.62C15651.622,2017.62 15450.564,2083.347 15450.564,2160.029C15450.564,2236.71 15655.452,2302.959 15946.508,2302.959C16061.399,2302.959 16226.22,2282.269 16288.899,2259.168Z" style="fill:rgb(236,35,0);fill-rule:nonzero;"/>
                    </g>
                    <g transform="matrix(1.292922,0,0,1.32178,-5105.537436,-515.802494)">
                        <ellipse cx="16469.933" cy="1222.303" rx="45.705" ry="46.975" style="fill:rgb(236,35,0);"/>
                    </g>
                </g>
                <g transform="matrix(1.49879,0,0,0.916645,15614.380574,33.210957)">
                    <path d="M918.476,1657.065C908.576,1598.159 908.273,1535.485 918.476,1470.682L958.219,1470.682C946.467,1535.364 945.312,1597.743 958.219,1657.065L918.476,1657.065Z" style="fill:white;"/>
                </g>
            </g>
        </g>
    </g>
</svg>
