<?xml version="1.0" encoding="UTF-8"?>
<svg id="Camada_1" xmlns="http://www.w3.org/2000/svg" version="1.1" xmlns:serif="http://www.serif.com/" xmlns:xlink="http://www.w3.org/1999/xlink" viewBox="0 0 169.8 90.4">
  <!-- Generator: Adobe Illustrator 29.2.1, SVG Export Plug-In . SVG Version: 2.1.0 Build 116)  -->
  <defs>
    <style>
      .st0 {
        fill: #ec2300;
      }

      .st1 {
        fill: none;
      }

      .st2 {
        fill-rule: evenodd;
      }
    </style>
  </defs>
  <rect id="Principal" class="st1" x="-212.8" y="-167.3" width="595.3" height="420.9"/>
  <g>
    <rect class="st1" x="9.9" y="-6.8" width="150" height="104"/>
    <g>
      <path class="st0" d="M151.1,47.3c0,5.5-2.7,9.9-5.2,13.2-2.3,3.1-8.4,5.8-12.7,5.8-10.8,0-18.4-8.8-18.4-19.1s7.5-19,18.3-19,10.5,2.6,13.2,5.8c3.6,4.2,4.8,8.2,4.8,13.3Z"/>
      <path class="st2" d="M147.2,66.4c-3.2-11.3-3.3-23.3,0-35.7h12.7c-3.8,12.4-4.1,24.4,0,35.7h-12.7Z"/>
    </g>
    <rect x="9.9" y="7.3" width="12.9" height="57.9"/>
    <path d="M46.8,39.3c5.3,0,8.3,3.7,8.3,8.1s-3.1,8-8.3,8-8.3-3.5-8.3-8,3.1-8.1,8.3-8.1h0ZM67.7,29.4h-12.9v3.5c-2.7-3.1-7.1-4.7-11.3-4.7-10.8,0-18.3,8.8-18.3,19s7.6,19.1,18.4,19.1,8.7-1.6,11-5.2h.1v4h12.9V29.4h0Z"/>
    <path d="M82.6,29.4h-12.9v53.6h12.9v-21.3c2.8,3.1,7.1,4.6,11.3,4.6,10.8,0,18.3-8.6,18.3-19s-7.5-19.2-18.4-19.2-8.7,1.7-11,5.2h-.1v-4h0ZM90.5,39.3c5.3,0,8.3,3.7,8.3,8.1s-3.1,8-8.3,8-8.3-3.5-8.3-8,3.1-8.1,8.3-8.1h0Z"/>
  </g>
</svg>