<?xml version="1.0" encoding="UTF-8" standalone="no"?>
<!DOCTYPE svg PUBLIC "-//W3C//DTD SVG 1.1//EN" "http://www.w3.org/Graphics/SVG/1.1/DTD/svg11.dtd">
<svg width="100%" height="100%" viewBox="0 0 1654 1654" version="1.1" xmlns="http://www.w3.org/2000/svg" xmlns:xlink="http://www.w3.org/1999/xlink" xml:space="preserve" xmlns:serif="http://www.serif.com/" style="fill-rule:evenodd;clip-rule:evenodd;stroke-linejoin:round;stroke-miterlimit:2;">
    <g transform="matrix(1,0,0,1,-22918.262536,0)">
        <g id="Prancheta3" transform="matrix(0.666667,0,0,0.666667,7942.262536,1811.023622)">
            <rect x="22464" y="-2716.535" width="2480.315" height="2480.315" style="fill:none;"/>
            <g transform="matrix(2.839676,0,0,6.442809,-23130.383206,-15863.75034)">
                <path d="M16390.161,2087.544L16230.32,2087.544L16230.32,2385.216L16390.161,2385.216L16390.161,2267.154C16424.413,2284.573 16477.986,2292.702 16529.803,2292.702C16663.297,2292.702 16755.513,2244.703 16755.513,2187.413C16755.513,2130.511 16662.418,2080.964 16528.046,2080.964C16475.351,2080.964 16420.9,2090.254 16391.918,2109.995L16390.161,2109.995L16390.161,2087.544ZM16487.647,2142.124C16552.637,2142.124 16590.402,2162.64 16590.402,2187.026C16590.402,2212.187 16552.637,2231.542 16487.647,2231.542C16422.656,2231.542 16384.892,2212.187 16384.892,2187.026C16384.892,2162.64 16422.656,2142.124 16487.647,2142.124Z" style="fill-rule:nonzero;"/>
            </g>
        </g>
    </g>
</svg>
